<svg xmlns="http://www.w3.org/2000/svg" width="29.57" height="29.575" viewBox="0 0 29.57 29.575"><g transform="translate(-4194.139 -4402.066)"><path d="M29.944,8.7a10.807,10.807,0,0,0-.687-3.588A7.576,7.576,0,0,0,24.929.78,10.835,10.835,0,0,0,21.341.093C19.758.017,19.255,0,15.24,0s-4.518.017-6.1.087A10.81,10.81,0,0,0,5.557.774a7.216,7.216,0,0,0-2.623,1.71A7.282,7.282,0,0,0,1.229,5.1,10.836,10.836,0,0,0,.542,8.689c-.075,1.583-.093,2.086-.093,6.1s.017,4.518.087,6.1a10.806,10.806,0,0,0,.688,3.588A7.575,7.575,0,0,0,5.551,28.8a10.836,10.836,0,0,0,3.588.687c1.577.07,2.08.087,6.1.087s4.518-.017,6.1-.087a10.8,10.8,0,0,0,3.588-.687,7.565,7.565,0,0,0,4.328-4.327,10.843,10.843,0,0,0,.687-3.588c.069-1.577.087-2.08.087-6.1S30.013,10.273,29.944,8.7ZM27.28,20.77a8.106,8.106,0,0,1-.508,2.744,4.906,4.906,0,0,1-2.808,2.808,8.135,8.135,0,0,1-2.744.508c-1.56.07-2.028.087-5.974.087s-4.42-.017-5.974-.087a8.1,8.1,0,0,1-2.744-.508,4.551,4.551,0,0,1-1.7-1.1,4.6,4.6,0,0,1-1.1-1.7,8.136,8.136,0,0,1-.508-2.744c-.07-1.56-.087-2.028-.087-5.974s.017-4.42.087-5.974a8.1,8.1,0,0,1,.508-2.744,4.5,4.5,0,0,1,1.109-1.7,4.591,4.591,0,0,1,1.7-1.1,8.141,8.141,0,0,1,2.744-.508c1.56-.069,2.028-.087,5.974-.087s4.42.017,5.974.087a8.106,8.106,0,0,1,2.744.508,4.548,4.548,0,0,1,1.7,1.1,4.6,4.6,0,0,1,1.1,1.7,8.139,8.139,0,0,1,.508,2.744c.069,1.56.087,2.028.087,5.974S27.35,19.21,27.28,20.77Zm0,0" transform="translate(4193.689 4402.066)" fill="#fff"/><path d="M132.547,124.5a7.6,7.6,0,1,0,7.6,7.6A7.6,7.6,0,0,0,132.547,124.5Zm0,12.526a4.928,4.928,0,1,1,4.928-4.928A4.929,4.929,0,0,1,132.547,137.026Zm0,0" transform="translate(4076.382 4284.759)" fill="#fff"/><path d="M366,90.375a1.774,1.774,0,1,1-1.774-1.774A1.774,1.774,0,0,1,366,90.375Zm0,0" transform="translate(3852.604 4318.583)" fill="#fff"/></g></svg>